<svg width="134" height="74" viewBox="0 0 134 74" fill="none" xmlns="http://www.w3.org/2000/svg">
<path d="M28.9107 20.5258C29.0246 21.0254 28.6526 22.6869 27.7948 25.5103C27.6232 26.075 26.6924 28.9901 25.0024 34.2556C23.777 38.1013 22.9565 40.8411 22.5407 42.475C22.0504 44.2761 21.5961 46.4819 21.1777 49.0925C20.6642 52.438 20.1506 55.7835 19.6371 59.129C19.3847 60.1626 19.0065 61.0559 18.5025 61.809C18.026 62.5183 17.5023 62.938 16.9314 63.0682C16.4675 63.174 16.018 63.0137 15.5829 62.5873C15.1835 62.1529 14.8577 61.3825 14.6055 60.2763C13.678 56.2082 13.0819 51.783 12.8174 47.0007C12.5804 42.1745 12.3929 37.3183 12.2548 32.4321C10.2681 37.8779 8.59093 42.9528 7.22338 47.6568C5.7976 52.5993 4.83763 56.7035 4.3435 59.9695C4.18378 61.2448 4.01999 62.5021 3.85214 63.7417C3.49831 65.812 2.87533 66.9488 1.98321 67.1522C1.31648 67.1916 0.893611 66.8188 0.714611 66.0337C0.429837 64.7848 0.665055 62.4412 1.42026 59.0031C1.72272 57.6953 2.02517 56.3875 2.32763 55.0797C3.39529 50.7069 4.95881 45.5453 7.01821 39.5949C9.17153 33.3979 10.9125 29.0968 12.2411 26.6916C12.9523 25.3657 13.647 24.6255 14.325 24.4709C15.0744 24.3 15.5386 24.6071 15.7176 25.3922C15.7908 25.7134 15.7845 26.0151 15.6987 26.2974C14.9516 29.7713 14.8418 35.0519 15.3691 42.1393C15.8145 48.0442 16.4277 52.7094 17.2088 56.1352C17.3785 55.2331 17.8022 53.2219 18.4797 50.1018C19.0571 47.5301 19.4767 45.5011 19.7384 44.0149C20.3077 41.4075 20.8155 39.1895 21.262 37.3608C21.7974 35.099 22.4154 32.7057 23.1161 30.1809C23.8525 27.648 24.5801 25.3235 25.2989 23.2076C26.0096 21.0559 26.8467 19.8703 27.8102 19.6506C28.373 19.4847 28.7398 19.7765 28.9107 20.5258Z" fill="white"/>
<path d="M37.886 28.4462C38.0812 29.3027 37.8386 30.2965 37.158 31.4277C36.505 32.5151 35.8573 33.132 35.215 33.2785C34.4656 33.4493 33.9892 33.0887 33.7858 32.1966C33.5987 31.3758 33.8276 30.4039 34.4724 29.2809C35.1173 28.1578 35.7609 27.523 36.4033 27.3766C37.1883 27.1976 37.6826 27.5541 37.886 28.4462ZM34.6671 39.7664C34.7892 40.3017 34.6833 40.9077 34.3496 41.5844C33.6465 42.946 32.8979 45.4254 32.1039 49.0225C31.3017 52.584 30.9319 54.9958 30.9944 56.2579C31.057 57.52 30.7054 58.2008 29.9397 58.3003C29.6543 58.3654 29.3597 58.2261 29.0561 57.8824C28.7525 57.5387 28.5478 57.1349 28.442 56.671C28.0352 54.8867 28.2946 52.2373 29.2201 48.7228C30.0015 45.7291 31.0103 42.9089 32.2462 40.2621C32.3758 40.0073 32.5411 39.7444 32.7421 39.4733C32.9787 39.1941 33.2577 39.0179 33.5788 38.9447C34.166 38.8858 34.5288 39.1598 34.6671 39.7664Z" fill="white"/>
<path d="M52.9949 41.2185C53.2797 42.4675 52.7449 44.4852 51.3907 47.2716C49.8047 50.5238 47.692 53.2766 45.0525 55.5302C44.4413 58.4475 43.8257 60.9341 43.2058 62.99C42.3092 65.9724 41.3828 68.2483 40.4267 69.8177C39.1952 71.8254 37.7944 73.0082 36.2242 73.3662C34.4757 73.7649 33.3451 72.8401 32.8325 70.592C32.4176 68.7721 33.0697 66.4461 34.789 63.614C36.5083 60.7819 39.012 58.0149 42.3001 55.3131C42.6758 54.3265 42.9218 53.5947 43.0383 53.1177C43.2324 52.3226 43.2685 51.6574 43.1464 51.1222C42.5566 52.1576 41.9359 52.9749 41.2841 53.5739C40.6242 54.1373 39.9553 54.4963 39.2773 54.6509C37.8499 54.9764 36.9409 54.2827 36.5504 52.5698C36.0378 50.3217 36.7282 47.0109 38.6216 42.6375C40.6446 38.0093 42.8337 35.4267 45.1889 34.8897C46.0453 34.6945 46.7844 34.8075 47.406 35.2289C48.0276 35.6502 48.428 36.2534 48.607 37.0385C48.729 37.5738 48.7537 38.0937 48.681 38.5983C48.6359 39.059 48.4741 39.584 48.1955 40.173C48.8021 40.0347 49.1063 40.1343 49.1082 40.4717C48.3731 42.5163 47.7166 44.4116 47.1387 46.1576C46.4668 48.1502 46.1784 49.849 46.2735 51.2538C47.7485 49.491 48.9688 47.5985 49.9343 45.5765C50.7232 43.9326 51.508 42.2708 52.2888 40.5912C52.6456 40.5098 52.881 40.7189 52.9949 41.2185ZM45.8122 38.8582C45.682 38.2873 45.3315 38.0669 44.7605 38.1971C43.7613 38.4249 42.4785 40.1251 40.9119 43.2978C39.2433 46.6814 38.5962 49.194 38.9705 50.8355C39.1576 51.6563 39.5723 51.9934 40.2146 51.8469C40.857 51.7005 41.499 51.1412 42.1408 50.169C42.9008 49.0572 43.6556 47.3459 44.4051 45.0353C43.7741 45.0665 43.4382 44.993 43.3975 44.8145C43.822 44.042 44.27 43.2078 44.7415 42.312C45.2405 41.3724 45.5846 40.4117 45.7737 39.4301L45.8122 38.8582ZM41.8256 58.9125C40.5767 59.1973 39.1079 60.6584 37.4193 63.2958C35.7032 65.977 34.9875 67.9421 35.2723 69.1911C35.3374 69.4765 35.5192 69.6979 35.8178 69.855C36.1164 70.0122 36.4263 70.0541 36.7475 69.9809C37.711 69.7612 38.6501 68.3646 39.5649 65.791C40.3144 63.4803 41.068 61.1875 41.8256 58.9125Z" fill="white"/>
<path d="M69.8717 37.8773C70.2053 39.3403 69.699 41.4829 68.3529 44.305C66.8496 47.4257 65.1344 49.2058 63.2074 49.6451C62.5651 49.7916 62.0346 49.6873 61.6158 49.3323C61.2245 48.9335 60.9434 48.3594 60.7726 47.6101C60.4878 46.3611 60.5483 44.7331 60.9541 42.726C61.3599 40.719 62.0074 38.6193 62.8965 36.4269C59.525 40.5743 57.4419 45.1035 56.6472 50.0147C56.3547 51.6956 55.8338 52.6215 55.0844 52.7924C54.2993 52.9714 53.797 52.5791 53.5773 51.6157C53.3901 50.7949 53.59 48.8724 54.1767 45.848C54.6715 43.4077 55.1971 41.1856 55.7538 39.1817C57.2848 33.8774 58.7689 27.6265 60.2061 20.429C60.8705 17.0866 61.738 15.2934 62.8085 15.0493C63.772 14.8296 64.3636 15.2015 64.5833 16.165C64.7297 16.8073 64.323 18.6456 63.3631 21.68C62.4389 24.7062 61.4968 27.7365 60.5369 30.7709C59.3942 34.4851 58.722 37.1347 58.5203 38.7199C59.8151 36.6603 61.1101 35.0136 62.4055 33.7797C63.4836 32.7456 64.4152 32.139 65.2002 31.96C66.0567 31.7647 66.5663 32.0239 66.729 32.7376C66.7778 32.9517 66.7618 33.2932 66.681 33.7621C65.6529 36.6619 64.8887 38.8257 64.3884 40.2537C63.4899 42.8987 63.122 44.578 63.2847 45.2917C63.3986 45.7913 63.6875 45.9882 64.1514 45.8824C64.9008 45.7115 65.5194 45.2139 66.0071 44.3894C66.0622 44.3018 66.7018 42.5793 67.9259 39.2219C68.3648 38.1833 68.8341 37.6071 69.3336 37.4932C69.6191 37.4281 69.7985 37.5561 69.8717 37.8773Z" fill="white"/>
<path d="M85.6282 23.248C85.9906 24.1789 85.3755 24.9386 83.7828 25.5269C81.0175 26.5704 79.1801 27.4023 78.2704 28.0226C77.1489 31.9948 76.3718 35.4192 75.939 38.2958C75.5708 40.6321 75.5006 42.2999 75.7284 43.2991C75.9074 44.0841 76.3002 44.4075 76.9069 44.2692C77.6205 44.1065 78.4141 43.3061 79.2875 41.8682C80.1885 40.3864 80.8387 38.7928 81.2382 37.0875C81.3772 36.3801 81.6609 35.9776 82.0891 35.88C82.6438 35.6784 83.0025 35.9345 83.1652 36.6482C83.5069 38.1469 82.9227 40.1947 81.4125 42.7914C79.9299 45.3443 78.3679 46.8079 76.7264 47.1821C75.8343 47.3856 74.9897 47.2215 74.1928 46.6899C73.3959 46.1584 72.8673 45.3216 72.6069 44.1797C72.2164 42.4669 72.3242 40.0585 72.9304 36.9546C73.3863 34.6734 73.9971 32.4131 74.7629 30.1738C74.0786 30.6301 73.5402 30.9031 73.1477 30.9926C72.3269 31.1797 71.8189 30.845 71.6236 29.9886C71.469 29.3106 71.8628 28.7328 72.8051 28.2552C73.783 27.7694 74.7787 27.2796 75.7923 26.7857C76.9175 23.4885 77.8122 21.2385 78.4765 20.0359C79.1327 18.7977 79.8176 18.0972 80.5313 17.9345C81.0503 17.741 81.3912 18.0012 81.5539 18.7149C81.6841 19.2858 81.4925 20.1742 80.979 21.3799C80.2227 23.1666 79.7919 24.2408 79.6867 24.6027C80.4943 24.1933 81.2387 23.8359 81.9198 23.5304C82.601 23.2249 83.2449 23.003 83.8515 22.8647C84.9221 22.6206 85.5143 22.7484 85.6282 23.248Z" fill="white"/>
<path d="M100.966 6.85577C101.601 9.63918 100.496 14.0956 97.6518 20.2249C95.0859 25.7652 92.204 30.4954 89.0059 34.4155C88.4336 37.1738 88.245 38.9811 88.4403 39.8376C88.5868 40.4799 88.8206 40.7644 89.1417 40.6912C89.7484 40.5529 90.494 39.7072 91.3787 38.154C92.2909 36.557 92.7994 35.1648 92.904 33.9772C93.0624 33.1903 93.3736 32.7439 93.8375 32.6381C94.0873 32.5812 94.3258 32.6394 94.553 32.8128C94.8078 32.9424 94.9759 33.1857 95.0573 33.5425C95.3502 34.8272 94.6426 36.8279 92.9346 39.5449C91.2266 42.2618 89.7839 43.7545 88.6063 44.023C87.2859 44.324 86.4264 43.6003 86.0277 41.8517C85.922 41.3878 85.8769 40.7787 85.8926 40.0243C86.2968 33.4002 87.6686 26.5743 90.0079 19.5465C92.195 13.0039 94.4371 8.51344 96.7342 6.07516C97.441 5.38843 98.0621 4.98405 98.5974 4.86201C99.1683 4.73182 99.6673 4.86207 100.094 5.25274C100.513 5.60773 100.804 6.14208 100.966 6.85577ZM98.6 8.57786C98.486 8.07828 98.2328 7.87323 97.8403 7.96273C96.9482 8.16614 95.5532 10.7741 93.6554 15.7867C91.7494 20.7636 90.6411 24.958 90.3304 28.3699C92.4684 25.8928 94.4832 22.2988 96.3748 17.588C98.2 13.08 98.9417 10.0766 98.6 8.57786Z" fill="white"/>
<path d="M106.572 12.7853C106.767 13.6417 106.525 14.6356 105.844 15.7668C105.191 16.8542 104.543 17.4711 103.901 17.6175C103.152 17.7884 102.675 17.4278 102.472 16.5357C102.285 15.7149 102.514 14.743 103.159 13.6199C103.803 12.4969 104.447 11.8621 105.089 11.7156C105.874 11.5366 106.369 11.8932 106.572 12.7853ZM103.353 24.1055C103.475 24.6407 103.369 25.2467 103.036 25.9235C102.333 27.2851 101.584 29.7644 100.79 33.3616C99.9878 36.9231 99.618 39.3349 99.6805 40.597C99.743 41.8591 99.3915 42.5399 98.6258 42.6394C98.3404 42.7045 98.0458 42.5652 97.7422 42.2214C97.4386 41.8777 97.2339 41.4739 97.1281 41.01C96.7213 39.2258 96.9807 36.5764 97.9062 33.0619C98.6876 30.0682 99.6963 27.248 100.932 24.6011C101.062 24.3464 101.227 24.0834 101.428 23.8124C101.665 23.5332 101.944 23.357 102.265 23.2837C102.852 23.2249 103.215 23.4988 103.353 24.1055Z" fill="white"/>
<path d="M118.912 1.80675C119.034 2.34202 118.847 3.00404 118.351 3.79282C117.139 5.72095 115.833 8.55276 114.432 12.2883C113.032 16.0237 111.929 19.5035 111.125 22.7276C111.955 22.0878 112.748 21.5316 113.504 21.059C114.691 20.3379 115.766 19.8675 116.73 19.6478C117.55 19.4607 118.291 19.4983 118.952 19.7606C119.648 20.0148 120.097 20.4193 120.298 20.974C120.371 21.2951 120.213 21.6692 119.822 22.0961C119.467 22.5149 119.093 22.769 118.701 22.8585C118.558 22.8911 118.067 22.7965 117.228 22.5749C116.787 22.4503 116.352 22.4368 115.924 22.5344C115.246 22.689 114.214 23.1869 112.83 24.0283C111.437 24.8339 110.429 25.6831 109.807 26.5757C111.189 26.7111 112.35 27.4411 113.29 28.7658C114.067 29.8652 114.642 31.2356 115.016 32.8771C116.619 39.907 116.432 45.6744 114.456 50.1793C112.947 53.6017 111.014 55.5815 108.659 56.1185C107.803 56.3137 106.969 56.0345 106.159 55.2807C105.322 54.5707 104.752 53.5555 104.451 52.2352C104.199 51.129 104.06 49.9407 104.033 48.6705C104.014 47.436 104.068 46.1097 104.196 44.6917C104.435 42.1219 104.978 38.6571 105.824 34.2974C106.171 32.5288 106.346 31.4004 106.347 30.9121C106.212 30.9803 106.038 31.0389 105.824 31.0877C105.253 31.2179 104.923 31.0867 104.833 30.6942C104.727 30.2303 104.938 29.5066 105.464 28.5231C105.991 27.5396 106.741 26.4676 107.715 25.307C108.657 21.8638 109.372 19.3171 109.859 17.6669C110.661 14.9312 111.52 12.2765 112.435 9.7029C113.377 7.08549 114.275 4.92884 115.127 3.23295C115.433 2.60004 115.807 2.10174 116.25 1.73804C116.684 1.33865 117.116 1.09014 117.544 0.992501C118.293 0.821637 118.749 1.09305 118.912 1.80675ZM112.705 33.8546C112.404 32.5342 111.991 31.4646 111.467 30.6457C110.942 29.8268 110.298 29.3917 109.536 29.3403C108.981 31.6817 108.319 35.5302 107.551 40.8859C106.818 46.2335 106.562 49.389 106.781 50.3525C106.96 51.1376 107.237 51.6938 107.612 52.0213C107.995 52.3844 108.365 52.5253 108.722 52.4439C110.185 52.1103 111.425 50.1384 112.441 46.5281C113.61 42.4326 113.698 38.2081 112.705 33.8546Z" fill="white"/>
<path d="M133.597 25.3183C133.881 26.5673 132.961 28.5415 130.836 31.2408C128.566 34.1236 126.324 35.8172 124.112 36.3217C123.005 36.5739 121.93 36.3873 120.887 35.7618C119.871 35.0925 119.224 34.1512 118.948 32.9379C118.598 31.4035 118.679 29.6205 119.192 27.5891C119.619 25.8399 120.223 24.3697 121.002 23.1784C122.088 21.3542 123.097 20.0167 124.029 19.166C124.953 18.2796 125.772 17.755 126.486 17.5923C127.164 17.4377 127.766 17.5257 128.291 17.8563C128.817 18.1869 129.149 18.6555 129.288 19.2621C129.548 20.404 129.255 21.9162 128.408 23.7986C127.792 25.2153 127.005 26.5397 126.047 27.7717C125.634 28.429 124.985 29.1213 124.1 29.8487C123.467 30.3683 122.756 30.8685 121.964 31.3492C122.159 32.2057 122.484 32.8073 122.939 33.1542C123.421 33.4572 124.001 33.5314 124.679 33.3768C125.785 33.1246 127.019 32.2801 128.381 30.8435C129.778 29.3986 130.931 27.7845 131.838 26.0009C132.254 25.1927 132.605 24.7561 132.891 24.691C133.247 24.6096 133.483 24.8188 133.597 25.3183ZM126.953 21.3711C126.855 20.9429 126.584 20.7419 126.14 20.7682C125.569 20.8983 124.98 21.4455 124.374 22.4095C123.898 23.1188 123.385 24.0804 122.836 25.2942C122.314 26.4643 121.943 27.4687 121.721 28.3076C122.899 28.0391 124.118 27.0478 125.379 25.3338C126.64 23.6198 127.165 22.2989 126.953 21.3711Z" fill="white"/>
</svg>
