<svg width="82" height="17" viewBox="0 0 82 17" fill="none" xmlns="http://www.w3.org/2000/svg">
<path d="M3.75697 0.355225L9.12656 8.55315V0.355225H13.3678V15.8224H9.61085L4.24125 7.60205V15.8224H0V0.355225H3.75697Z" fill="white"/>
<path d="M33.0796 8.08809C33.0796 12.5515 29.2353 16.1537 24.7719 16.1537C20.3085 16.1537 16.4417 12.549 16.4417 8.08809C16.4417 3.62716 20.3085 0 24.7719 0C29.2353 0 33.0796 3.62466 33.0796 8.08809ZM29.0156 8.08809C29.0156 5.74654 27.1159 3.84684 24.7744 3.84684C22.4328 3.84684 20.5306 5.74404 20.5306 8.08809C20.5306 10.4296 22.4303 12.3094 24.7719 12.3094C27.1134 12.3094 29.0156 10.4296 29.0156 8.08809Z" fill="white"/>
<path d="M48.5481 3.93246H44.0172V15.8199H39.796V3.93246H35.2651V0.355225H48.5456V3.93246H48.5481Z" fill="white"/>
<path d="M59.7975 13.0815H54.8923L53.9412 15.8224H49.2356L55.0695 0.355225H59.6003L65.4567 15.8224H60.7511L59.7975 13.0815ZM58.5369 9.50176L57.3437 6.09927L56.1504 9.50176H58.5369Z" fill="white"/>
<path d="M81.0107 11.2267C81.0107 13.9227 79.2209 15.8224 75.1344 15.8224H68.5715V0.355225H74.8897C78.2273 0.355225 80.0147 2.05772 80.0147 4.61895C80.0147 5.50264 79.6602 6.78326 78.5793 7.57959C80.3692 8.28605 81.0107 9.8113 81.0107 11.2267ZM72.7903 3.93246V6.05433H74.9122C75.8633 6.05433 76.3051 5.59002 76.3051 4.99339C76.3051 4.39677 75.8633 3.93246 74.9122 3.93246H72.7903ZM77.2113 10.9371C77.2113 10.2082 76.6147 9.63406 75.5313 9.63406H72.7903V12.2402H75.5313C76.6147 12.2427 77.2113 11.6461 77.2113 10.9371Z" fill="white"/>
</svg>
