<svg width="26" height="25" viewBox="0 0 26 25" fill="none" xmlns="http://www.w3.org/2000/svg">
<path d="M13.0018 0C5.82117 0 0 5.59437 0 12.4952C0 19.396 5.82117 24.9904 13.0018 24.9904C13.3935 24.9904 13.7837 24.9735 14.172 24.94C14.533 24.9088 14.8909 24.8613 15.246 24.8017L15.3825 24.7785C21.9843 23.5944 26.5618 17.7733 25.9443 11.3463C25.3268 4.91937 19.7176 0.00203372 13.0018 0V0ZM11.9572 24.1133H11.9265C11.5894 24.0846 11.2549 24.0413 10.9233 23.9857C10.9042 23.9825 10.8852 23.9805 10.8665 23.977C10.5423 23.9213 10.2215 23.8521 9.9039 23.7714L9.82708 23.7525C9.51727 23.6717 9.21085 23.578 8.90887 23.4739C8.87755 23.4631 8.84602 23.4535 8.8147 23.4423C8.51865 23.3378 8.22789 23.2207 7.94157 23.094C7.90602 23.0787 7.87047 23.0641 7.83491 23.0478C7.5541 22.9229 7.27878 22.7822 7.00876 22.6341C6.97067 22.6134 6.93216 22.5926 6.89406 22.5721C6.62827 22.423 6.36862 22.2632 6.11383 22.0944C6.07532 22.0685 6.03638 22.0435 5.99808 22.0177C5.74773 21.8471 5.50374 21.6659 5.26609 21.4763L5.2007 21.4214V17.9098C5.20388 15.3806 7.33634 13.3313 9.96802 13.3282H16.0355C18.6672 13.3313 20.7996 15.3806 20.8028 17.9098V21.4218L20.7453 21.468C20.503 21.6624 20.2543 21.8463 19.9989 22.0199C19.965 22.0427 19.9307 22.0645 19.8971 22.0869C19.6393 22.2589 19.3752 22.4208 19.1048 22.5729C19.0709 22.5918 19.0362 22.6097 19.0026 22.6284C18.7285 22.7783 18.4498 22.9199 18.1656 23.0474C18.1331 23.062 18.1003 23.0756 18.0672 23.0891C17.7786 23.217 17.4853 23.3347 17.1871 23.4401C17.1575 23.4507 17.1277 23.4598 17.1004 23.4698C16.7969 23.5743 16.4892 23.6689 16.1777 23.75L16.103 23.7679C15.7849 23.8487 15.4639 23.9182 15.1393 23.9741C15.1207 23.9774 15.1021 23.9796 15.0834 23.9825C14.7514 24.0382 14.4164 24.0815 14.0791 24.1104H14.0484C13.7018 24.1391 13.3549 24.1545 13.0039 24.1545C12.6528 24.1545 12.3032 24.1419 11.9572 24.1133ZM21.6696 20.6496V17.9098C21.666 14.9208 19.1456 12.4987 16.0355 12.4952H9.96802C6.85788 12.4987 4.33752 14.9208 4.33392 17.9098V20.6492C-0.333932 16.0707 -0.281874 8.72996 4.45031 4.21286C9.18249 -0.304042 16.821 -0.304042 21.5532 4.21286C26.2854 8.72996 26.3375 16.0707 21.6696 20.6492V20.6496Z" fill="white"/>
<path d="M13.0016 3.33203C10.608 3.33203 8.66772 5.19675 8.66772 7.4971C8.66772 9.79744 10.608 11.6622 13.0016 11.6622C15.3952 11.6622 17.3356 9.79744 17.3356 7.4971C17.333 5.19777 15.3942 3.33447 13.0016 3.33203ZM13.0016 10.8291C11.0867 10.8291 9.53451 9.33741 9.53451 7.4971C9.53451 5.65678 11.0867 4.16504 13.0016 4.16504C14.9166 4.16504 16.4688 5.65678 16.4688 7.4971C16.4667 9.3364 14.9155 10.8271 13.0016 10.8291Z" fill="white"/>
</svg>
